<svg version="1.0" xmlns="http://www.w3.org/2000/svg" viewBox="0 0 3500.000000 993.000000"
 preserveAspectRatio="xMidYMid meet">

<g transform="translate(0.000000,993.000000) scale(0.100000,-0.100000)"
fill="#fff" stroke="none">
<path d="M1875 9916 c-154 -36 -427 -195 -670 -390 -127 -101 -366 -341 -470
-471 -160 -199 -321 -447 -423 -651 -113 -226 -236 -568 -262 -734 -5 -30 -17
-91 -26 -135 -12 -57 -17 -131 -18 -255 -1 -183 13 -278 66 -450 32 -104 121
-278 194 -379 205 -286 555 -521 780 -525 85 -1 105 12 124 79 15 53 0 108
-49 179 -17 25 -31 49 -31 54 0 6 -4 12 -9 14 -9 3 -59 91 -102 178 -23 48
-34 75 -69 165 -7 19 -16 50 -40 145 -25 95 -34 235 -34 495 1 272 9 378 39
515 9 41 19 95 22 120 3 25 9 49 14 54 5 6 9 19 9 29 0 20 27 109 41 139 5 10
9 29 9 42 0 14 5 28 10 31 5 3 10 15 10 27 0 11 7 34 16 51 31 58 34 67 34 82
0 8 4 23 9 33 4 9 20 42 33 72 14 30 42 89 62 130 20 41 36 78 36 83 0 4 12
26 26 48 14 23 37 62 51 87 15 26 35 63 46 82 11 19 23 37 27 40 3 3 31 39 61
80 29 41 57 77 61 78 5 2 8 8 8 13 0 5 8 17 18 27 9 10 40 43 68 73 117 125
180 170 217 156 8 -3 17 -28 20 -59 8 -61 -9 -4686 -18 -5163 -12 -595 -49
-903 -152 -1255 -25 -85 -54 -184 -64 -220 -23 -79 -25 -167 -4 -197 36 -51
138 -38 290 37 190 94 387 271 513 460 114 171 247 476 281 641 5 24 16 78 25
119 58 261 70 480 86 1465 17 1026 9 4383 -10 4438 -41 116 -237 238 -486 302
-124 32 -284 41 -369 21z"/>
<path d="M11497 9916 c-26 -7 -58 -23 -72 -36 -73 -68 -81 -152 -112 -1144
l-6 -209 -231 7 c-127 4 -305 11 -396 16 -91 6 -202 10 -247 10 -78 0 -84 -2
-118 -31 -95 -84 -177 -381 -151 -552 9 -58 45 -103 88 -110 18 -4 249 -11
513 -18 264 -6 484 -15 489 -20 5 -4 4 -469 -3 -1101 -13 -1200 -9 -1129 -78
-1343 -39 -120 -100 -274 -114 -290 -5 -5 -9 -15 -9 -21 0 -23 -163 -289 -238
-389 -82 -108 -196 -236 -262 -292 l-40 -35 4 74 c3 40 8 118 11 173 14 216
-34 398 -160 613 -93 159 -253 324 -507 525 -182 143 -545 415 -649 486 -41
27 -89 66 -108 85 l-34 35 29 38 c15 21 32 43 37 48 140 167 309 464 378 665
31 88 33 105 34 225 0 127 -1 131 -32 191 -72 138 -202 197 -433 197 -131 0
-247 -23 -354 -72 -276 -125 -499 -391 -583 -697 -23 -86 -27 -118 -27 -244
-1 -112 3 -158 17 -205 28 -92 82 -191 158 -291 l69 -92 -19 -45 c-11 -25 -30
-62 -43 -83 -14 -22 -47 -82 -75 -134 -131 -248 -163 -306 -251 -460 -52 -91
-103 -179 -112 -196 -414 -727 -614 -1010 -773 -1088 -58 -29 -118 -34 -141
-10 -32 32 -70 109 -78 158 -59 359 -62 1181 -8 2136 6 102 12 302 13 445 l1
260 -31 67 c-57 122 -184 229 -423 356 -184 97 -304 127 -444 112 -243 -28
-496 -197 -691 -463 -25 -34 -48 -66 -53 -72 -30 -41 -82 -116 -82 -121 0 -3
-16 -30 -35 -60 -19 -30 -35 -56 -35 -58 0 -3 -19 -37 -43 -78 -40 -68 -112
-211 -152 -303 -10 -22 -28 -65 -42 -95 -31 -69 -36 -82 -78 -190 -10 -25 -21
-54 -26 -65 -4 -11 -16 -45 -25 -75 -9 -30 -21 -59 -25 -65 -5 -5 -9 -19 -9
-32 0 -13 -4 -31 -9 -41 -15 -27 -38 -83 -52 -127 -7 -22 -17 -44 -21 -50 -4
-5 -8 -19 -8 -31 0 -13 -4 -26 -10 -29 -5 -3 -10 -17 -10 -31 0 -14 -11 -45
-25 -70 -14 -25 -25 -50 -25 -57 0 -7 -10 -33 -21 -58 -12 -24 -30 -66 -40
-94 l-18 -50 0 62 c-1 34 -5 65 -11 68 -13 8 -13 100 -1 124 6 10 11 383 12
918 2 867 1 901 -17 932 -33 57 -262 155 -461 196 -108 23 -248 24 -290 2 -66
-35 -62 10 -73 -939 -15 -1377 -16 -2804 -1 -2928 40 -327 140 -483 336 -520
98 -18 303 -24 379 -11 79 14 139 42 160 74 8 12 17 49 21 82 34 320 117 730
225 1108 11 40 25 88 30 107 13 47 40 139 50 170 4 14 13 45 20 70 7 25 24 77
37 116 12 39 23 79 23 90 0 11 4 24 8 29 5 6 17 33 26 60 10 28 21 59 26 70 5
11 14 38 20 60 7 22 18 53 26 68 8 16 14 37 14 47 0 10 5 22 10 25 6 3 10 14
10 25 0 10 12 42 26 72 15 29 30 62 34 73 4 11 24 54 43 95 31 67 48 106 77
175 21 53 66 140 73 143 4 2 7 11 8 20 0 10 9 31 20 47 10 17 22 37 26 45 3 8
9 17 12 20 4 3 19 32 36 65 16 33 32 62 35 65 3 3 12 19 20 35 8 17 25 44 37
61 13 17 23 36 23 42 0 7 5 12 10 12 6 0 10 4 10 9 0 11 82 135 93 139 4 2 7
8 7 14 0 5 6 15 13 23 6 7 26 30 42 51 53 66 90 109 98 112 4 2 7 8 7 13 0 6
20 30 45 56 25 25 45 49 45 53 0 4 14 13 30 20 24 10 37 10 56 1 24 -10 25
-14 19 -64 -3 -28 -10 -185 -15 -347 -5 -162 -14 -378 -19 -480 -56 -1047 -59
-1444 -15 -1845 59 -540 198 -819 451 -904 262 -88 555 19 867 319 96 92 260
281 328 376 23 32 46 61 50 62 4 2 8 8 8 13 0 6 5 15 10 22 43 51 54 66 71 99
10 20 23 38 28 40 8 3 191 294 191 304 0 2 33 57 73 122 65 104 341 567 395
664 24 42 61 104 80 133 6 11 15 27 19 35 4 8 21 38 39 66 61 95 124 214 124
233 0 5 11 16 24 24 22 15 26 14 53 -6 16 -12 49 -41 74 -64 24 -23 54 -50 65
-60 231 -199 484 -456 572 -580 75 -106 141 -226 165 -303 47 -148 48 -153 49
-289 0 -97 -5 -154 -17 -196 -62 -224 -179 -345 -365 -377 -61 -11 -83 -10
-158 5 -136 28 -228 76 -432 227 -141 105 -180 123 -256 124 -77 0 -109 -19
-206 -123 -105 -113 -174 -238 -208 -379 -34 -143 38 -237 264 -347 356 -174
963 -235 1383 -139 405 91 768 320 1049 660 105 127 124 152 124 162 0 6 4 12
8 14 13 5 145 207 167 253 10 22 21 42 24 45 3 3 13 18 21 35 8 16 36 68 61
115 26 47 54 107 63 133 9 27 34 77 55 113 l39 64 7 -33 c4 -17 11 -68 16
-112 16 -147 31 -233 74 -422 8 -40 36 -134 61 -210 177 -535 495 -825 934
-849 208 -12 385 61 585 241 103 92 267 297 329 410 9 17 22 39 29 49 41 65
77 126 77 130 0 3 16 38 35 77 19 40 35 85 35 101 0 33 13 61 41 89 10 10 19
24 19 29 0 6 5 10 10 10 6 0 10 -8 10 -18 0 -10 3 -22 7 -26 5 -4 13 -29 19
-54 12 -49 64 -195 82 -228 6 -10 29 -59 52 -109 72 -154 193 -323 310 -433
126 -119 313 -213 505 -253 92 -20 323 -18 425 4 327 70 643 276 838 547 34
47 65 90 69 95 23 29 63 96 63 104 0 6 13 25 28 43 16 18 34 42 39 52 10 18
12 16 23 -20 6 -21 18 -64 25 -94 26 -106 32 -125 43 -145 16 -30 42 -92 42
-100 0 -24 120 -182 185 -244 178 -169 384 -254 615 -254 247 1 452 87 629
264 105 106 216 276 229 349 5 32 14 48 31 56 13 7 27 18 31 24 9 14 70 -63
70 -87 0 -7 5 -13 10 -13 6 0 10 -6 10 -12 0 -30 112 -179 200 -268 150 -151
299 -238 489 -286 309 -79 647 -11 957 192 114 74 323 276 357 345 14 29 41
61 65 79 l42 30 0 -87 c0 -49 5 -141 10 -207 6 -88 6 -123 -3 -137 -7 -11
-164 -157 -349 -325 -814 -735 -1096 -1030 -1305 -1364 -165 -262 -231 -490
-220 -759 9 -224 50 -360 158 -521 158 -236 430 -398 784 -467 126 -24 370
-24 485 1 464 100 868 449 1049 908 93 238 159 506 201 818 11 85 23 169 26
185 16 98 22 547 15 1095 -7 514 -6 618 5 635 21 30 203 255 215 265 3 3 55
70 116 150 259 342 475 672 670 1020 58 103 87 159 158 300 42 85 84 169 93
185 8 17 19 37 23 45 3 8 16 33 27 55 11 22 39 85 62 140 56 131 77 180 106
238 13 27 24 55 24 62 0 7 8 28 17 47 30 61 33 68 33 86 0 10 4 22 9 27 12 13
81 220 81 244 0 45 17 47 364 59 384 14 383 14 378 -58 -1 -25 -18 -108 -37
-185 -18 -77 -39 -171 -45 -210 -6 -38 -15 -86 -20 -105 -13 -48 -36 -215 -72
-520 -18 -144 -18 -815 0 -930 58 -384 135 -618 276 -835 214 -328 551 -528
891 -528 217 -1 401 80 595 259 76 71 195 236 217 301 8 26 29 60 45 76 l30
27 18 -22 c11 -13 22 -32 26 -43 7 -22 86 -144 119 -185 175 -215 386 -347
640 -402 89 -19 323 -16 421 5 360 77 671 291 897 620 48 70 87 135 87 145 0
10 14 31 30 45 17 15 30 32 30 37 0 6 4 10 8 10 8 0 23 -48 38 -120 3 -14 12
-39 20 -57 8 -17 14 -36 14 -43 0 -6 19 -50 41 -98 104 -220 248 -368 454
-467 172 -84 357 -112 532 -81 111 19 176 44 269 101 139 87 318 311 354 444
6 23 21 51 34 63 13 13 31 37 39 53 13 24 16 26 17 10 1 -69 32 -436 40 -468
11 -52 51 -92 128 -128 152 -73 401 -105 607 -80 178 23 231 52 259 140 8 27
17 113 20 211 23 605 46 1020 65 1135 6 39 16 106 22 150 12 90 30 175 66 320
14 55 28 115 30 133 3 18 9 35 14 38 5 3 9 20 9 37 1 18 7 43 15 57 8 14 14
37 15 52 0 15 5 30 10 33 6 3 10 21 10 38 0 18 7 41 15 51 8 11 15 30 15 42 0
13 5 26 10 29 6 3 10 18 10 33 0 15 7 36 15 46 8 11 15 29 15 41 0 12 3 25 7
29 6 6 16 30 49 126 9 25 25 65 36 90 10 25 23 54 27 65 19 48 164 332 177
346 8 8 14 20 14 26 0 12 43 53 57 53 5 0 21 -9 34 -21 l24 -21 7 -361 c4
-199 12 -427 17 -507 32 -489 38 -551 87 -965 9 -77 20 -153 25 -169 5 -16 9
-44 9 -63 0 -19 4 -53 9 -76 5 -23 19 -90 31 -148 56 -282 115 -410 242 -524
111 -100 247 -141 437 -133 157 8 257 50 286 122 7 18 15 102 19 206 8 237 29
468 61 665 9 55 20 129 26 165 5 36 13 90 18 120 5 30 14 71 20 90 6 19 11 51
11 70 0 20 4 40 9 46 5 5 11 27 14 49 13 90 24 141 35 162 7 12 12 38 12 57 0
20 5 36 10 36 6 0 10 18 10 39 0 22 5 43 10 46 6 3 10 18 10 33 1 15 7 38 15
52 8 14 14 37 15 52 0 15 4 29 9 32 5 3 11 23 14 43 9 65 28 133 38 133 5 0 9
11 9 24 0 14 5 28 10 31 6 3 10 15 10 25 0 10 8 33 17 52 31 61 33 68 33 88 0
11 5 20 10 20 6 0 10 8 10 18 0 17 17 60 41 104 5 10 9 27 9 37 0 11 5 23 10
26 5 3 10 19 10 35 0 16 4 32 10 35 5 3 17 23 26 43 8 20 20 45 25 54 5 10 9
26 9 36 0 10 7 27 15 38 8 10 15 35 15 54 1 39 12 57 51 82 26 16 27 16 50 -8
21 -23 22 -27 11 -89 -26 -140 -34 -342 -29 -768 8 -656 30 -996 88 -1312 11
-60 24 -132 29 -160 18 -105 82 -291 140 -406 126 -253 291 -423 513 -530 131
-62 220 -82 377 -83 116 -1 146 2 210 23 276 86 461 282 595 631 36 92 82 247
95 320 4 25 18 97 31 160 26 133 31 311 11 378 -30 98 -115 145 -196 107 -62
-30 -99 -118 -156 -370 -67 -296 -156 -503 -256 -595 -96 -88 -226 -100 -324
-29 -76 55 -155 183 -209 339 -30 87 -38 123 -76 365 -50 312 -53 1327 -9
2445 4 98 2 136 -11 177 -40 125 -149 225 -348 318 -378 175 -610 190 -739 47
-20 -22 -47 -59 -61 -83 -26 -45 -106 -237 -134 -319 -8 -25 -21 -58 -28 -75
-23 -53 -57 -149 -62 -177 -3 -16 -9 -28 -14 -28 -5 0 -9 -9 -9 -20 0 -11 -4
-28 -9 -38 -5 -9 -17 -39 -26 -67 -9 -27 -20 -59 -25 -70 -4 -11 -13 -40 -20
-65 -6 -25 -18 -60 -26 -78 -8 -18 -14 -41 -14 -52 0 -10 -5 -22 -10 -25 -5
-3 -10 -17 -10 -31 0 -13 -4 -32 -9 -42 -5 -9 -17 -44 -26 -77 -10 -33 -21
-69 -25 -80 -4 -11 -13 -38 -19 -60 -35 -132 -44 -162 -52 -183 -5 -13 -9 -38
-9 -56 0 -18 -3 -36 -7 -40 -11 -11 -42 -139 -42 -178 -1 -20 -5 -40 -11 -43
-5 -3 -10 -24 -10 -45 0 -21 -4 -50 -9 -63 -5 -13 -13 -55 -16 -93 -4 -38 -10
-73 -13 -79 -4 -5 -10 -35 -13 -65 -8 -60 -37 -150 -49 -150 -4 0 -17 42 -29
93 -33 144 -48 437 -69 1372 -6 279 -15 471 -21 488 -6 16 -11 41 -11 57 0 16
-5 32 -10 35 -5 3 -10 14 -10 25 0 31 -42 100 -101 164 -129 140 -391 246
-609 246 -148 0 -202 -23 -272 -115 -40 -52 -162 -290 -174 -338 -3 -15 -10
-30 -15 -33 -5 -3 -9 -16 -9 -30 0 -13 -4 -24 -10 -24 -5 0 -10 -7 -10 -16 0
-8 -5 -25 -12 -37 -17 -30 -49 -118 -120 -332 -33 -99 -64 -189 -68 -200 -4
-11 -13 -36 -20 -55 -7 -19 -15 -47 -17 -63 -3 -15 -9 -30 -14 -33 -5 -3 -9
-17 -9 -31 0 -13 -6 -37 -14 -51 -23 -46 -34 -76 -39 -107 -7 -39 -43 -146
-72 -210 -13 -27 -31 -74 -40 -102 -9 -29 -19 -53 -21 -53 -3 0 -4 345 -4 768
1 422 -2 783 -6 802 -10 48 -51 105 -96 130 -44 24 -302 92 -447 115 -123 21
-221 16 -260 -12 -59 -44 -59 -40 -71 -618 -6 -291 -15 -910 -20 -1375 -7
-709 -10 -853 -23 -895 -8 -27 -22 -75 -30 -105 -24 -87 -58 -191 -77 -235
-10 -22 -32 -76 -51 -120 -18 -44 -45 -102 -61 -128 -15 -26 -28 -50 -28 -52
0 -17 -129 -181 -173 -222 -83 -75 -116 -88 -222 -88 -73 0 -98 4 -131 22
-136 72 -202 217 -245 533 -38 281 -52 795 -38 1392 14 619 26 1073 35 1363
l7 231 -26 39 c-64 98 -277 184 -530 215 -157 20 -246 1 -309 -67 -35 -38 -48
-90 -48 -198 l0 -90 -27 38 c-14 20 -31 37 -38 37 -11 0 -55 52 -55 66 0 11
-82 89 -164 158 -227 189 -572 260 -878 181 -204 -53 -418 -192 -569 -368 -58
-69 -203 -279 -249 -362 -151 -270 -272 -623 -320 -925 -6 -41 -16 -100 -21
-130 -38 -220 -55 -627 -40 -919 11 -192 28 -367 45 -446 26 -118 28 -146 16
-192 -74 -283 -195 -475 -345 -549 -53 -26 -70 -29 -150 -29 -75 0 -98 4 -140
25 -54 26 -144 113 -170 164 -9 17 -31 60 -50 96 -19 36 -35 74 -35 86 0 11
-3 24 -7 28 -5 4 -14 31 -21 59 -7 29 -17 70 -23 92 -24 98 -40 215 -56 415
-15 189 -15 247 -4 485 7 148 17 288 23 310 6 22 14 74 19 115 11 93 23 172
44 275 9 44 19 98 21 120 3 22 9 49 14 60 4 11 14 47 20 80 7 33 16 76 20 95
4 19 22 98 39 175 17 77 40 181 52 230 15 69 19 116 17 201 -3 102 -5 115 -37
177 -114 225 -346 295 -701 213 -171 -39 -353 -74 -555 -106 -104 -17 -203
-32 -219 -35 -27 -5 -28 -4 -22 28 28 151 37 256 27 325 -33 223 -183 342
-432 342 -255 0 -447 -121 -561 -355 -77 -156 -113 -406 -73 -502 8 -19 15
-46 15 -59 0 -52 91 -186 185 -272 l63 -58 -10 -49 c-25 -127 -100 -371 -173
-565 -54 -144 -95 -247 -125 -315 -71 -161 -102 -228 -167 -358 -70 -141 -144
-279 -192 -357 -11 -19 -24 -42 -28 -50 -4 -8 -21 -37 -38 -65 -17 -27 -35
-57 -38 -65 -8 -18 -26 -47 -129 -208 -43 -67 -78 -123 -78 -126 0 -6 -71 -76
-78 -76 -8 0 7 1846 20 2385 6 259 11 496 11 527 -1 108 -49 160 -196 218
-188 74 -420 113 -530 91 -72 -16 -134 -61 -164 -121 -19 -36 -23 -61 -23
-140 -1 -94 -1 -95 -18 -67 -9 15 -25 30 -35 33 -10 3 -34 30 -52 59 -91 142
-308 294 -498 349 -327 95 -662 31 -937 -180 -404 -307 -735 -1045 -801 -1784
-39 -436 -39 -728 1 -1050 23 -183 23 -205 5 -276 -42 -170 -135 -364 -224
-470 -94 -112 -169 -154 -275 -154 -90 0 -167 30 -226 89 -215 213 -268 927
-199 2691 5 146 11 383 12 527 l2 262 -40 41 c-80 83 -300 165 -516 191 -166
20 -254 -5 -314 -89 -28 -41 -30 -50 -33 -152 l-4 -108 -51 53 c-29 29 -77 82
-107 117 -209 242 -523 363 -851 328 -302 -32 -577 -200 -793 -483 -104 -136
-212 -317 -280 -467 -21 -47 -42 -94 -47 -105 -18 -40 -79 -227 -103 -317 -41
-157 -80 -369 -105 -578 -6 -47 -16 -123 -21 -170 -6 -47 -13 -173 -16 -280
-3 -107 -10 -222 -16 -255 -53 -297 -213 -655 -392 -880 -169 -212 -345 -313
-482 -276 -41 11 -134 86 -134 109 0 7 -4 12 -8 12 -5 0 -16 19 -27 43 -10 23
-29 67 -43 97 -25 56 -47 141 -63 240 -4 30 -16 100 -26 155 -15 89 -18 192
-21 910 -2 548 0 839 7 900 6 50 16 248 22 440 14 466 26 778 35 902 l7 102
41 5 c23 3 284 7 581 9 597 4 589 3 637 68 60 82 98 200 104 329 6 107 -9 155
-56 177 -52 24 -256 41 -770 63 -129 6 -300 15 -379 22 l-144 11 7 226 c3 124
11 307 17 406 20 360 24 497 14 529 -6 20 -27 42 -57 63 -102 68 -380 157
-617 197 -110 19 -121 19 -184 2z m3784 -2916 c128 -24 241 -105 323 -229 40
-61 51 -82 86 -166 99 -242 144 -649 121 -1113 -15 -326 -54 -618 -107 -807
-9 -33 -20 -77 -25 -98 -16 -64 -88 -248 -136 -342 -106 -211 -256 -367 -415
-432 -32 -13 -70 -18 -148 -18 -93 0 -112 3 -162 27 -141 66 -269 250 -332
478 -10 36 -24 85 -32 110 -20 71 -62 361 -74 516 -42 564 60 1291 232 1654
41 86 151 241 207 291 125 112 298 160 462 129z m4212 -5 c120 -25 212 -90
281 -197 39 -62 93 -177 106 -228 5 -19 14 -53 20 -75 16 -58 46 -234 59 -350
16 -145 14 -669 -4 -845 -43 -427 -133 -795 -260 -1055 -186 -382 -490 -549
-748 -412 -53 28 -187 156 -187 179 0 5 -10 25 -23 46 -54 87 -120 291 -151
472 -32 180 -35 205 -47 345 -12 143 -7 532 10 725 12 133 41 331 62 410 4 19
17 71 28 115 62 252 132 421 244 591 144 219 381 328 610 279z m7281 -9 c122
-39 228 -140 304 -292 35 -68 81 -191 93 -249 50 -239 55 -280 69 -525 31
-556 -36 -1097 -184 -1485 -86 -227 -160 -350 -285 -476 -100 -99 -190 -150
-298 -168 -110 -19 -231 15 -315 89 -53 45 -140 164 -173 235 -15 33 -31 67
-35 75 -26 54 -85 308 -99 425 -6 50 -16 126 -21 169 -38 297 -13 902 51 1251
11 61 23 129 26 153 3 23 10 45 14 48 5 3 9 20 9 37 1 18 7 43 15 57 8 14 14
35 15 48 0 12 4 30 9 40 4 9 15 33 23 52 103 234 193 364 306 442 49 34 146
75 206 88 56 12 211 4 270 -14z m-6719 -5136 c-9 -129 -21 -254 -26 -277 -5
-23 -9 -61 -9 -84 0 -23 -4 -58 -9 -78 -6 -20 -17 -79 -26 -131 -9 -52 -21
-108 -25 -125 -5 -16 -16 -59 -26 -95 -26 -101 -73 -227 -118 -319 -68 -139
-189 -246 -342 -303 -50 -19 -80 -22 -190 -23 l-130 0 -80 39 c-86 43 -165
116 -198 183 -10 21 -22 45 -26 53 -4 8 -15 61 -25 118 -16 89 -17 114 -6 190
7 48 19 110 27 138 7 28 14 57 14 65 0 49 132 333 223 478 60 96 158 240 180
263 7 7 25 31 42 53 31 42 39 52 101 125 22 25 59 70 84 99 75 90 148 169 292
316 75 77 147 154 160 170 48 63 81 94 102 97 l21 3 3 -360 c3 -262 -1 -424
-13 -595z"/>
</g>
</svg>
